<?xml version="1.0" encoding="UTF-8"?><svg xmlns="http://www.w3.org/2000/svg" xmlns:xlink="http://www.w3.org/1999/xlink" viewBox="0 0 591.14 378.26"><defs><style>.f{fill:url(#e);}.g{fill:url(#d);}.h{stroke:#666;stroke-width:1.13px;}.h,.i{stroke-miterlimit:10;}.h,.i,.j{fill:#4d4d4d;}.i{stroke:#000;stroke-width:1.14px;}.k{fill:#666;}.l{fill:#5c5c5c;}.m{opacity:.5;}</style><linearGradient id="d" x1="293.57" y1="-1.92" x2="297.57" y2="380.18" gradientTransform="matrix(1, 0, 0, 1, 0, 0)" gradientUnits="userSpaceOnUse"><stop offset="0" stop-color="#949494"/><stop offset="1" stop-color="#393939"/></linearGradient><linearGradient id="e" x1="293.6" y1="1.28" x2="297.54" y2="376.97" xlink:href="#d"/></defs><g id="a"/><g id="b"><g id="c"><g><path class="g" d="M9,377.2c-4.38,0-7.94-3.56-7.94-7.94V9C1.06,4.62,4.62,1.06,9,1.06H582.14c4.38,0,7.94,3.56,7.94,7.94V369.25c0,4.38-3.56,7.94-7.94,7.94H9ZM46.19,39.1c-1.46,0-2.65,1.19-2.65,2.65V336.51c0,1.46,1.19,2.65,2.65,2.65h498.76c1.46,0,2.65-1.19,2.65-2.65V41.75c0-1.46-1.19-2.65-2.65-2.65H46.19Z"/><path d="M582.14,1.59c4.09,0,7.41,3.33,7.41,7.41V369.25c0,4.09-3.33,7.41-7.41,7.41H9c-4.09,0-7.41-3.33-7.41-7.41V9C1.59,4.91,4.91,1.59,9,1.59H582.14M46.19,339.69h498.76c1.75,0,3.18-1.43,3.18-3.18V41.75c0-1.75-1.43-3.18-3.18-3.18H46.19c-1.75,0-3.18,1.43-3.18,3.18V336.51c0,1.75,1.43,3.18,3.18,3.18M582.14,.53H9C4.32,.53,.53,4.32,.53,9V369.25c0,4.68,3.79,8.47,8.47,8.47H582.14c4.68,0,8.47-3.79,8.47-8.47V9c0-4.68-3.79-8.47-8.47-8.47h0ZM46.19,338.63c-1.17,0-2.12-.95-2.12-2.12V41.75c0-1.17,.95-2.12,2.12-2.12h498.76c1.17,0,2.12,.95,2.12,2.12V336.51c0,1.17-.95,2.12-2.12,2.12H46.19Z"/></g><g><path class="f" d="M8.98,373.99c-2.63,0-4.77-2.14-4.77-4.77V9.03c0-2.63,2.14-4.77,4.77-4.77H582.17c2.63,0,4.77,2.14,4.77,4.77V369.22c0,2.63-2.14,4.77-4.77,4.77H8.98Zm33.27-37.36h504.06V36.57H42.24V336.63Z"/><path d="M582.17,4.79c2.34,0,4.24,1.9,4.24,4.24V369.22c0,2.34-1.9,4.24-4.24,4.24H8.98c-2.34,0-4.24-1.9-4.24-4.24V9.03c0-2.34,1.9-4.24,4.24-4.24H582.17M41.71,337.16h505.12V36.04H41.71V337.16M582.17,3.74H8.98c-2.93,0-5.3,2.37-5.3,5.3V369.22c0,2.93,2.37,5.3,5.3,5.3H582.17c2.92,0,5.3-2.37,5.3-5.3V9.03c0-2.92-2.37-5.3-5.3-5.3h0ZM42.77,336.1V37.1h503V336.1H42.77Z"/></g><g class="m"><path class="l" d="M13.88,360.16c-.86,0-1.55-.67-1.55-1.5V13.35c0-.83,.7-1.5,1.55-1.5H577.96c.86,0,1.55,.67,1.55,1.5V358.66c0,.83-.7,1.5-1.55,1.5H13.88Zm34.03-30.28h496.02V42.13H47.91V329.88Z"/><path d="M577.96,12.38c.57,0,1.03,.44,1.03,.97V358.66c0,.54-.46,.97-1.03,.97H13.88c-.57,0-1.03-.44-1.03-.97V13.35c0-.54,.46-.97,1.03-.97H577.96M47.38,330.41h497.08V41.6H47.38V330.41M577.96,11.32H13.88c-1.15,0-2.08,.91-2.08,2.03V358.66c0,1.12,.93,2.03,2.08,2.03H577.96c1.15,0,2.08-.91,2.08-2.03V13.35c0-1.12-.93-2.03-2.08-2.03h0ZM48.44,329.35V42.66h494.96V329.35H48.44Z"/></g><g><path class="j" d="M530.67,51.15c-3.18-3.37-8.09-5.37-13.27-5.37-69.1-5.04-141.53-7.59-215.23-7.59s-150.93,2.56-229.57,7.59h0c-4.31,0-8.39,1.35-11.53,3.81l-24.55-22.8c.76-.23,1.56-.35,2.38-.35H551.13c1.97,0,3.87,.7,5.18,1.9l-25.65,22.81Z"/><path class="k" d="M551.13,27.01c1.6,0,3.14,.49,4.31,1.35l-24.75,22.01c-3.28-3.24-8.14-5.14-13.25-5.15-69.14-5.04-141.57-7.59-215.27-7.59s-150.93,2.55-229.57,7.59c-4.28,0-8.32,1.29-11.5,3.64l-23.42-21.75c.4-.06,.8-.09,1.22-.09H551.13m0-1.13H38.9c-1.24,0-2.41,.25-3.45,.7l25.58,23.77c2.95-2.46,7.05-4,11.6-4,77.65-4.98,154.22-7.59,229.54-7.59s144.7,2.45,215.23,7.59c5.46,0,10.28,2.21,13.22,5.6l26.51-23.58c-1.37-1.5-3.55-2.49-6-2.49h0Z"/></g><g><path class="j" d="M528.01,322.68c2.69-2.53,4.17-5.75,4.17-9.13,9.13-104.73,9.13-188.13,0-254.9,0-2.67-.96-5.29-2.79-7.57l25.67-22.83c.65,.86,.99,1.84,.99,2.84V341.18c0,1.36-.61,2.65-1.74,3.67l-26.29-22.17Z"/><path class="k" d="M554.94,29.1c.35,.63,.54,1.3,.54,1.98V341.18c0,1.05-.42,2.06-1.2,2.91l-25.42-21.44c2.51-2.56,3.88-5.73,3.89-9.05,9.13-104.76,9.13-188.16,0-254.96-.02-2.67-.91-5.24-2.59-7.5l24.78-22.04m.17-1.67l-26.51,23.58c1.89,2.18,3.02,4.83,3.02,7.71,10.19,74.49,8.13,161.54,0,254.83,0,3.55-1.7,6.76-4.46,9.14l27.15,22.9c1.42-1.12,2.3-2.68,2.3-4.41V31.09c0-1.37-.56-2.63-1.49-3.65h0Z"/></g><path class="h" d="M527.15,322.69c-2.96,2.56-7.14,4.16-11.78,4.16-139.75,12.29-288.68,11.31-444.77,0-3.76,0-7.21-1.06-9.96-2.81l-28.05,22.17c1.22,.7,2.69,1.11,4.28,1.11H549.11c2.01,0,3.84-.66,5.19-1.73l-27.15-22.9Z"/><g><path class="j" d="M34.58,346.46c-1.64-1.06-2.61-2.66-2.61-4.34V32.02c0-1.96,1.28-3.76,3.38-4.77l24.85,23.08c-2.82,2.56-4.37,5.85-4.37,9.32-11.31,66.5-11.31,147.52,0,254.89,0,4.03,2.13,7.82,5.88,10.47l-27.13,21.45Z"/><path class="k" d="M35.25,27.94l24.11,22.4c-2.63,2.58-4.08,5.81-4.1,9.22-11.31,66.62-11.31,147.65,0,254.99,.02,4.02,2.01,7.77,5.52,10.48l-26.22,20.73c-1.28-.95-2.02-2.27-2.02-3.64V32.02c0-1.63,1.02-3.15,2.72-4.09m.2-1.36c-2.4,1.03-4.05,3.08-4.05,5.44V342.11c0,2.08,1.28,3.92,3.22,5.03l28.05-22.17c-3.81-2.43-6.28-6.22-6.28-10.49-9.88-93.71-12.54-181.02,0-254.83,0-3.63,1.78-6.91,4.65-9.31l-25.58-23.77h0Z"/></g><path class="i" d="M56.85,46.67c-13.14,87.05-11.32,182.68,0,283.74,167.13,8.86,327.12,9.86,477.25,0,11.02-102.88,13.44-199.28,0-283.74-153.82-16.58-313.24-15.65-477.25,0Zm8.75,7.22c156.18-16.75,309.66-17.79,459.76,0,10.57,79.6,8.58,171.28,0,269.3-147.18,11.08-301.02,10-459.76,0-8.82-93.61-10.33-184.14,0-269.3"/></g></g></svg>